<mxfile host="Electron" modified="2024-03-25T10:29:07.148Z" agent="Mozilla/5.0 (Windows NT 10.0; Win64; x64) AppleWebKit/537.36 (KHTML, like Gecko) draw.io/24.1.0 Chrome/120.0.6099.109 Electron/28.1.0 Safari/537.36" etag="fMLFTcMS76djcA9gzSDx" version="24.1.0" type="device">
  <diagram name="Page-1" id="Tp_HCpK_Qih_PjosU47I">
    <mxGraphModel dx="1863" dy="606" grid="1" gridSize="10" guides="1" tooltips="1" connect="1" arrows="1" fold="1" page="1" pageScale="1" pageWidth="827" pageHeight="1169" math="0" shadow="0">
      <root>
        <mxCell id="0" />
        <mxCell id="1" parent="0" />
        <mxCell id="pRCXdVqekEFX91QpnFJt-1" value="OSEBA" style="rounded=0;whiteSpace=wrap;html=1;" parent="1" vertex="1">
          <mxGeometry x="120" y="260" width="120" height="60" as="geometry" />
        </mxCell>
        <mxCell id="pRCXdVqekEFX91QpnFJt-2" value="DOGODEK" style="rounded=0;whiteSpace=wrap;html=1;" parent="1" vertex="1">
          <mxGeometry x="240" y="640" width="120" height="60" as="geometry" />
        </mxCell>
        <mxCell id="iifiJUeVj2P6wkOjP6AG-1" value="OBJAVA" style="rounded=0;whiteSpace=wrap;html=1;" parent="1" vertex="1">
          <mxGeometry x="630" y="300" width="120" height="60" as="geometry" />
        </mxCell>
        <mxCell id="iifiJUeVj2P6wkOjP6AG-2" value="SPOROČILO" style="rounded=0;whiteSpace=wrap;html=1;" parent="1" vertex="1">
          <mxGeometry x="-220" y="457.5" width="120" height="60" as="geometry" />
        </mxCell>
        <mxCell id="iifiJUeVj2P6wkOjP6AG-3" value="&lt;u&gt;E-MAIL&lt;/u&gt;" style="ellipse;whiteSpace=wrap;html=1;" parent="1" vertex="1">
          <mxGeometry x="-40" y="270" width="80" height="50" as="geometry" />
        </mxCell>
        <mxCell id="iifiJUeVj2P6wkOjP6AG-4" value="ime" style="ellipse;whiteSpace=wrap;html=1;" parent="1" vertex="1">
          <mxGeometry x="-40" y="160" width="80" height="50" as="geometry" />
        </mxCell>
        <mxCell id="iifiJUeVj2P6wkOjP6AG-6" value="priimek" style="ellipse;whiteSpace=wrap;html=1;" parent="1" vertex="1">
          <mxGeometry x="60" y="160" width="80" height="50" as="geometry" />
        </mxCell>
        <mxCell id="iifiJUeVj2P6wkOjP6AG-7" value="smer študija" style="ellipse;whiteSpace=wrap;html=1;" parent="1" vertex="1">
          <mxGeometry x="160" y="160" width="80" height="50" as="geometry" />
        </mxCell>
        <mxCell id="iifiJUeVj2P6wkOjP6AG-8" value="spol" style="ellipse;whiteSpace=wrap;html=1;" parent="1" vertex="1">
          <mxGeometry x="260" y="160" width="80" height="50" as="geometry" />
        </mxCell>
        <mxCell id="iifiJUeVj2P6wkOjP6AG-9" value="" style="endArrow=none;html=1;rounded=0;exitX=0.978;exitY=0.652;exitDx=0;exitDy=0;exitPerimeter=0;entryX=0;entryY=0.5;entryDx=0;entryDy=0;" parent="1" source="iifiJUeVj2P6wkOjP6AG-3" target="pRCXdVqekEFX91QpnFJt-1" edge="1">
          <mxGeometry width="50" height="50" relative="1" as="geometry">
            <mxPoint y="320" as="sourcePoint" />
            <mxPoint x="390" y="395" as="targetPoint" />
          </mxGeometry>
        </mxCell>
        <mxCell id="iifiJUeVj2P6wkOjP6AG-10" value="" style="endArrow=none;html=1;rounded=0;exitX=0.5;exitY=1;exitDx=0;exitDy=0;entryX=0.5;entryY=0;entryDx=0;entryDy=0;" parent="1" source="iifiJUeVj2P6wkOjP6AG-7" target="pRCXdVqekEFX91QpnFJt-1" edge="1">
          <mxGeometry width="50" height="50" relative="1" as="geometry">
            <mxPoint x="380" y="420" as="sourcePoint" />
            <mxPoint x="430" y="370" as="targetPoint" />
          </mxGeometry>
        </mxCell>
        <mxCell id="iifiJUeVj2P6wkOjP6AG-11" value="" style="endArrow=none;html=1;rounded=0;exitX=0.5;exitY=1;exitDx=0;exitDy=0;entryX=0.25;entryY=0;entryDx=0;entryDy=0;" parent="1" source="iifiJUeVj2P6wkOjP6AG-6" target="pRCXdVqekEFX91QpnFJt-1" edge="1">
          <mxGeometry width="50" height="50" relative="1" as="geometry">
            <mxPoint x="390" y="420" as="sourcePoint" />
            <mxPoint x="430" y="370" as="targetPoint" />
          </mxGeometry>
        </mxCell>
        <mxCell id="iifiJUeVj2P6wkOjP6AG-12" value="" style="endArrow=none;html=1;rounded=0;exitX=0.758;exitY=0.948;exitDx=0;exitDy=0;exitPerimeter=0;entryX=0;entryY=0;entryDx=0;entryDy=0;" parent="1" source="iifiJUeVj2P6wkOjP6AG-4" target="pRCXdVqekEFX91QpnFJt-1" edge="1">
          <mxGeometry width="50" height="50" relative="1" as="geometry">
            <mxPoint x="380" y="420" as="sourcePoint" />
            <mxPoint x="430" y="370" as="targetPoint" />
          </mxGeometry>
        </mxCell>
        <mxCell id="iifiJUeVj2P6wkOjP6AG-13" value="" style="endArrow=none;html=1;rounded=0;exitX=0.5;exitY=1;exitDx=0;exitDy=0;entryX=0.75;entryY=0;entryDx=0;entryDy=0;" parent="1" source="iifiJUeVj2P6wkOjP6AG-8" target="pRCXdVqekEFX91QpnFJt-1" edge="1">
          <mxGeometry width="50" height="50" relative="1" as="geometry">
            <mxPoint x="380" y="420" as="sourcePoint" />
            <mxPoint x="430" y="370" as="targetPoint" />
          </mxGeometry>
        </mxCell>
        <mxCell id="iifiJUeVj2P6wkOjP6AG-14" value="IS A" style="triangle;whiteSpace=wrap;html=1;" parent="1" vertex="1">
          <mxGeometry x="160" y="360" width="40" height="50" as="geometry" />
        </mxCell>
        <mxCell id="iifiJUeVj2P6wkOjP6AG-15" value="ORGANIZATOR" style="rounded=0;whiteSpace=wrap;html=1;" parent="1" vertex="1">
          <mxGeometry x="280" y="350" width="120" height="60" as="geometry" />
        </mxCell>
        <mxCell id="iifiJUeVj2P6wkOjP6AG-17" value="OBISKOVALEC" style="rounded=0;whiteSpace=wrap;html=1;" parent="1" vertex="1">
          <mxGeometry x="110" y="460" width="120" height="60" as="geometry" />
        </mxCell>
        <mxCell id="iifiJUeVj2P6wkOjP6AG-18" value="" style="endArrow=none;html=1;rounded=0;exitX=0.25;exitY=1;exitDx=0;exitDy=0;entryX=0;entryY=0.25;entryDx=0;entryDy=0;" parent="1" source="pRCXdVqekEFX91QpnFJt-1" target="iifiJUeVj2P6wkOjP6AG-14" edge="1">
          <mxGeometry width="50" height="50" relative="1" as="geometry">
            <mxPoint x="380" y="420" as="sourcePoint" />
            <mxPoint x="430" y="370" as="targetPoint" />
          </mxGeometry>
        </mxCell>
        <mxCell id="iifiJUeVj2P6wkOjP6AG-19" value="" style="endArrow=none;html=1;rounded=0;exitX=1;exitY=0.5;exitDx=0;exitDy=0;entryX=0;entryY=0.583;entryDx=0;entryDy=0;entryPerimeter=0;" parent="1" source="iifiJUeVj2P6wkOjP6AG-14" target="iifiJUeVj2P6wkOjP6AG-15" edge="1">
          <mxGeometry width="50" height="50" relative="1" as="geometry">
            <mxPoint x="380" y="420" as="sourcePoint" />
            <mxPoint x="430" y="370" as="targetPoint" />
          </mxGeometry>
        </mxCell>
        <mxCell id="iifiJUeVj2P6wkOjP6AG-20" value="" style="endArrow=none;html=1;rounded=0;exitX=0.5;exitY=1;exitDx=0;exitDy=0;entryX=0.5;entryY=0;entryDx=0;entryDy=0;" parent="1" source="iifiJUeVj2P6wkOjP6AG-14" target="iifiJUeVj2P6wkOjP6AG-17" edge="1">
          <mxGeometry width="50" height="50" relative="1" as="geometry">
            <mxPoint x="380" y="420" as="sourcePoint" />
            <mxPoint x="430" y="370" as="targetPoint" />
          </mxGeometry>
        </mxCell>
        <mxCell id="iifiJUeVj2P6wkOjP6AG-21" value="je prijatelj" style="rhombus;whiteSpace=wrap;html=1;" parent="1" vertex="1">
          <mxGeometry x="334" y="250" width="86" height="60" as="geometry" />
        </mxCell>
        <mxCell id="iifiJUeVj2P6wkOjP6AG-22" value="" style="endArrow=none;html=1;rounded=0;exitX=1;exitY=0.25;exitDx=0;exitDy=0;entryX=0;entryY=0;entryDx=0;entryDy=0;" parent="1" source="pRCXdVqekEFX91QpnFJt-1" target="iifiJUeVj2P6wkOjP6AG-21" edge="1">
          <mxGeometry width="50" height="50" relative="1" as="geometry">
            <mxPoint x="380" y="420" as="sourcePoint" />
            <mxPoint x="430" y="370" as="targetPoint" />
          </mxGeometry>
        </mxCell>
        <mxCell id="iifiJUeVj2P6wkOjP6AG-23" value="" style="endArrow=none;html=1;rounded=0;exitX=1;exitY=0.5;exitDx=0;exitDy=0;entryX=0;entryY=1;entryDx=0;entryDy=0;" parent="1" source="pRCXdVqekEFX91QpnFJt-1" target="iifiJUeVj2P6wkOjP6AG-21" edge="1">
          <mxGeometry width="50" height="50" relative="1" as="geometry">
            <mxPoint x="380" y="420" as="sourcePoint" />
            <mxPoint x="430" y="370" as="targetPoint" />
          </mxGeometry>
        </mxCell>
        <mxCell id="iifiJUeVj2P6wkOjP6AG-24" value="vodi" style="rhombus;whiteSpace=wrap;html=1;" parent="1" vertex="1">
          <mxGeometry x="390" y="470" width="80" height="50" as="geometry" />
        </mxCell>
        <mxCell id="iifiJUeVj2P6wkOjP6AG-25" value="organizira" style="rhombus;whiteSpace=wrap;html=1;" parent="1" vertex="1">
          <mxGeometry x="270" y="465" width="80" height="45" as="geometry" />
        </mxCell>
        <mxCell id="iifiJUeVj2P6wkOjP6AG-26" value="" style="shape=flexArrow;endArrow=classic;html=1;rounded=0;exitX=0.75;exitY=1;exitDx=0;exitDy=0;" parent="1" source="iifiJUeVj2P6wkOjP6AG-15" edge="1">
          <mxGeometry width="50" height="50" relative="1" as="geometry">
            <mxPoint x="380" y="520" as="sourcePoint" />
            <mxPoint x="430" y="470" as="targetPoint" />
          </mxGeometry>
        </mxCell>
        <mxCell id="iifiJUeVj2P6wkOjP6AG-27" value="" style="shape=flexArrow;endArrow=classic;html=1;rounded=0;exitX=1;exitY=0;exitDx=0;exitDy=0;entryX=0.5;entryY=1;entryDx=0;entryDy=0;" parent="1" source="pRCXdVqekEFX91QpnFJt-2" target="iifiJUeVj2P6wkOjP6AG-24" edge="1">
          <mxGeometry width="50" height="50" relative="1" as="geometry">
            <mxPoint x="380" y="520" as="sourcePoint" />
            <mxPoint x="430" y="470" as="targetPoint" />
          </mxGeometry>
        </mxCell>
        <mxCell id="iifiJUeVj2P6wkOjP6AG-28" value="" style="shape=link;html=1;rounded=0;exitX=0.5;exitY=0;exitDx=0;exitDy=0;entryX=0.5;entryY=1;entryDx=0;entryDy=0;" parent="1" source="pRCXdVqekEFX91QpnFJt-2" target="iifiJUeVj2P6wkOjP6AG-25" edge="1">
          <mxGeometry width="100" relative="1" as="geometry">
            <mxPoint x="360" y="490" as="sourcePoint" />
            <mxPoint x="460" y="490" as="targetPoint" />
          </mxGeometry>
        </mxCell>
        <mxCell id="iifiJUeVj2P6wkOjP6AG-29" value="" style="endArrow=none;html=1;rounded=0;exitX=0.5;exitY=0;exitDx=0;exitDy=0;entryX=0.25;entryY=1;entryDx=0;entryDy=0;" parent="1" source="iifiJUeVj2P6wkOjP6AG-25" target="iifiJUeVj2P6wkOjP6AG-15" edge="1">
          <mxGeometry width="50" height="50" relative="1" as="geometry">
            <mxPoint x="380" y="520" as="sourcePoint" />
            <mxPoint x="430" y="470" as="targetPoint" />
          </mxGeometry>
        </mxCell>
        <mxCell id="iifiJUeVj2P6wkOjP6AG-30" value="" style="endArrow=none;html=1;rounded=0;exitX=0.5;exitY=1;exitDx=0;exitDy=0;entryX=0.5;entryY=0;entryDx=0;entryDy=0;" parent="1" source="iifiJUeVj2P6wkOjP6AG-17" target="iifiJUeVj2P6wkOjP6AG-31" edge="1">
          <mxGeometry width="50" height="50" relative="1" as="geometry">
            <mxPoint x="380" y="520" as="sourcePoint" />
            <mxPoint x="170" y="560" as="targetPoint" />
          </mxGeometry>
        </mxCell>
        <mxCell id="iifiJUeVj2P6wkOjP6AG-31" value="se udeleži" style="rhombus;whiteSpace=wrap;html=1;" parent="1" vertex="1">
          <mxGeometry x="130" y="565" width="80" height="45" as="geometry" />
        </mxCell>
        <mxCell id="iifiJUeVj2P6wkOjP6AG-32" value="" style="endArrow=none;html=1;rounded=0;exitX=1;exitY=1;exitDx=0;exitDy=0;entryX=0;entryY=0;entryDx=0;entryDy=0;" parent="1" source="iifiJUeVj2P6wkOjP6AG-31" target="pRCXdVqekEFX91QpnFJt-2" edge="1">
          <mxGeometry width="50" height="50" relative="1" as="geometry">
            <mxPoint x="380" y="520" as="sourcePoint" />
            <mxPoint x="430" y="470" as="targetPoint" />
          </mxGeometry>
        </mxCell>
        <mxCell id="iifiJUeVj2P6wkOjP6AG-33" value="čas" style="ellipse;whiteSpace=wrap;html=1;" parent="1" vertex="1">
          <mxGeometry x="540" y="220" width="80" height="50" as="geometry" />
        </mxCell>
        <mxCell id="iifiJUeVj2P6wkOjP6AG-34" value="naslov" style="ellipse;whiteSpace=wrap;html=1;" parent="1" vertex="1">
          <mxGeometry x="450" y="740" width="80" height="50" as="geometry" />
        </mxCell>
        <mxCell id="iifiJUeVj2P6wkOjP6AG-35" value="čas" style="ellipse;whiteSpace=wrap;html=1;" parent="1" vertex="1">
          <mxGeometry x="334" y="750" width="80" height="50" as="geometry" />
        </mxCell>
        <mxCell id="iifiJUeVj2P6wkOjP6AG-36" value="št. prostih&lt;div&gt;mest&lt;/div&gt;" style="ellipse;whiteSpace=wrap;html=1;" parent="1" vertex="1">
          <mxGeometry x="230" y="750" width="80" height="50" as="geometry" />
        </mxCell>
        <mxCell id="iifiJUeVj2P6wkOjP6AG-37" value="opis" style="ellipse;whiteSpace=wrap;html=1;" parent="1" vertex="1">
          <mxGeometry x="130" y="750" width="80" height="50" as="geometry" />
        </mxCell>
        <mxCell id="iifiJUeVj2P6wkOjP6AG-38" value="&lt;u&gt;ID&lt;/u&gt;" style="ellipse;whiteSpace=wrap;html=1;" parent="1" vertex="1">
          <mxGeometry x="90" y="690" width="80" height="50" as="geometry" />
        </mxCell>
        <mxCell id="iifiJUeVj2P6wkOjP6AG-39" value="" style="endArrow=none;html=1;rounded=0;exitX=0.5;exitY=0;exitDx=0;exitDy=0;entryX=1;entryY=1;entryDx=0;entryDy=0;" parent="1" source="iifiJUeVj2P6wkOjP6AG-34" target="pRCXdVqekEFX91QpnFJt-2" edge="1">
          <mxGeometry width="50" height="50" relative="1" as="geometry">
            <mxPoint x="380" y="620" as="sourcePoint" />
            <mxPoint x="430" y="570" as="targetPoint" />
          </mxGeometry>
        </mxCell>
        <mxCell id="iifiJUeVj2P6wkOjP6AG-40" value="" style="endArrow=none;html=1;rounded=0;exitX=0.5;exitY=0;exitDx=0;exitDy=0;entryX=0.5;entryY=1;entryDx=0;entryDy=0;" parent="1" source="iifiJUeVj2P6wkOjP6AG-35" target="pRCXdVqekEFX91QpnFJt-2" edge="1">
          <mxGeometry width="50" height="50" relative="1" as="geometry">
            <mxPoint x="380" y="620" as="sourcePoint" />
            <mxPoint x="430" y="570" as="targetPoint" />
          </mxGeometry>
        </mxCell>
        <mxCell id="iifiJUeVj2P6wkOjP6AG-41" value="" style="endArrow=none;html=1;rounded=0;exitX=0.5;exitY=0;exitDx=0;exitDy=0;entryX=0.25;entryY=1;entryDx=0;entryDy=0;" parent="1" source="iifiJUeVj2P6wkOjP6AG-36" target="pRCXdVqekEFX91QpnFJt-2" edge="1">
          <mxGeometry width="50" height="50" relative="1" as="geometry">
            <mxPoint x="380" y="620" as="sourcePoint" />
            <mxPoint x="430" y="570" as="targetPoint" />
          </mxGeometry>
        </mxCell>
        <mxCell id="iifiJUeVj2P6wkOjP6AG-42" value="" style="endArrow=none;html=1;rounded=0;exitX=1;exitY=0;exitDx=0;exitDy=0;entryX=0;entryY=1;entryDx=0;entryDy=0;" parent="1" source="iifiJUeVj2P6wkOjP6AG-37" target="pRCXdVqekEFX91QpnFJt-2" edge="1">
          <mxGeometry width="50" height="50" relative="1" as="geometry">
            <mxPoint x="380" y="620" as="sourcePoint" />
            <mxPoint x="430" y="570" as="targetPoint" />
          </mxGeometry>
        </mxCell>
        <mxCell id="iifiJUeVj2P6wkOjP6AG-43" value="" style="endArrow=none;html=1;rounded=0;exitX=1;exitY=0.5;exitDx=0;exitDy=0;entryX=0;entryY=0.5;entryDx=0;entryDy=0;" parent="1" source="iifiJUeVj2P6wkOjP6AG-38" target="pRCXdVqekEFX91QpnFJt-2" edge="1">
          <mxGeometry width="50" height="50" relative="1" as="geometry">
            <mxPoint x="380" y="620" as="sourcePoint" />
            <mxPoint x="430" y="570" as="targetPoint" />
          </mxGeometry>
        </mxCell>
        <mxCell id="iifiJUeVj2P6wkOjP6AG-44" value="objavi" style="rhombus;whiteSpace=wrap;html=1;" parent="1" vertex="1">
          <mxGeometry x="480" y="310" width="80" height="50" as="geometry" />
        </mxCell>
        <mxCell id="iifiJUeVj2P6wkOjP6AG-45" value="" style="shape=flexArrow;endArrow=classic;html=1;rounded=0;exitX=0;exitY=0.5;exitDx=0;exitDy=0;" parent="1" source="iifiJUeVj2P6wkOjP6AG-1" target="iifiJUeVj2P6wkOjP6AG-44" edge="1">
          <mxGeometry width="50" height="50" relative="1" as="geometry">
            <mxPoint x="380" y="520" as="sourcePoint" />
            <mxPoint x="430" y="470" as="targetPoint" />
          </mxGeometry>
        </mxCell>
        <mxCell id="iifiJUeVj2P6wkOjP6AG-46" value="" style="endArrow=none;html=1;rounded=0;entryX=0;entryY=0.5;entryDx=0;entryDy=0;exitX=1;exitY=0.25;exitDx=0;exitDy=0;" parent="1" source="iifiJUeVj2P6wkOjP6AG-15" target="iifiJUeVj2P6wkOjP6AG-44" edge="1">
          <mxGeometry width="50" height="50" relative="1" as="geometry">
            <mxPoint x="380" y="520" as="sourcePoint" />
            <mxPoint x="430" y="470" as="targetPoint" />
          </mxGeometry>
        </mxCell>
        <mxCell id="iifiJUeVj2P6wkOjP6AG-49" value="zasebnost" style="ellipse;whiteSpace=wrap;html=1;" parent="1" vertex="1">
          <mxGeometry x="770" y="220" width="80" height="50" as="geometry" />
        </mxCell>
        <mxCell id="iifiJUeVj2P6wkOjP6AG-50" value="besedilo" style="ellipse;whiteSpace=wrap;html=1;" parent="1" vertex="1">
          <mxGeometry x="650" y="220" width="80" height="50" as="geometry" />
        </mxCell>
        <mxCell id="iifiJUeVj2P6wkOjP6AG-51" value="" style="endArrow=none;html=1;rounded=0;entryX=0.5;entryY=1;entryDx=0;entryDy=0;exitX=0;exitY=0;exitDx=0;exitDy=0;" parent="1" source="iifiJUeVj2P6wkOjP6AG-1" target="iifiJUeVj2P6wkOjP6AG-33" edge="1">
          <mxGeometry width="50" height="50" relative="1" as="geometry">
            <mxPoint x="380" y="460" as="sourcePoint" />
            <mxPoint x="430" y="410" as="targetPoint" />
          </mxGeometry>
        </mxCell>
        <mxCell id="iifiJUeVj2P6wkOjP6AG-52" value="" style="endArrow=none;html=1;rounded=0;entryX=1;entryY=0;entryDx=0;entryDy=0;exitX=0.5;exitY=1;exitDx=0;exitDy=0;" parent="1" source="iifiJUeVj2P6wkOjP6AG-49" target="iifiJUeVj2P6wkOjP6AG-1" edge="1">
          <mxGeometry width="50" height="50" relative="1" as="geometry">
            <mxPoint x="380" y="460" as="sourcePoint" />
            <mxPoint x="430" y="410" as="targetPoint" />
          </mxGeometry>
        </mxCell>
        <mxCell id="iifiJUeVj2P6wkOjP6AG-53" value="" style="endArrow=none;html=1;rounded=0;exitX=0.5;exitY=0;exitDx=0;exitDy=0;entryX=0.5;entryY=1;entryDx=0;entryDy=0;" parent="1" source="iifiJUeVj2P6wkOjP6AG-1" target="iifiJUeVj2P6wkOjP6AG-50" edge="1">
          <mxGeometry width="50" height="50" relative="1" as="geometry">
            <mxPoint x="380" y="460" as="sourcePoint" />
            <mxPoint x="430" y="410" as="targetPoint" />
          </mxGeometry>
        </mxCell>
        <mxCell id="iifiJUeVj2P6wkOjP6AG-54" value="&lt;u&gt;ID&lt;/u&gt;" style="ellipse;whiteSpace=wrap;html=1;" parent="1" vertex="1">
          <mxGeometry x="800" y="305" width="80" height="50" as="geometry" />
        </mxCell>
        <mxCell id="iifiJUeVj2P6wkOjP6AG-55" value="" style="endArrow=none;html=1;rounded=0;entryX=1;entryY=0.5;entryDx=0;entryDy=0;exitX=0;exitY=0.5;exitDx=0;exitDy=0;" parent="1" source="iifiJUeVj2P6wkOjP6AG-54" target="iifiJUeVj2P6wkOjP6AG-1" edge="1">
          <mxGeometry width="50" height="50" relative="1" as="geometry">
            <mxPoint x="490" y="460" as="sourcePoint" />
            <mxPoint x="540" y="410" as="targetPoint" />
          </mxGeometry>
        </mxCell>
        <mxCell id="iifiJUeVj2P6wkOjP6AG-56" value="čas" style="ellipse;whiteSpace=wrap;html=1;" parent="1" vertex="1">
          <mxGeometry x="-180" y="550" width="80" height="50" as="geometry" />
        </mxCell>
        <mxCell id="iifiJUeVj2P6wkOjP6AG-57" value="vsebina" style="ellipse;whiteSpace=wrap;html=1;" parent="1" vertex="1">
          <mxGeometry x="-340" y="510" width="80" height="50" as="geometry" />
        </mxCell>
        <mxCell id="iifiJUeVj2P6wkOjP6AG-58" value="&lt;u&gt;ID&lt;/u&gt;" style="ellipse;whiteSpace=wrap;html=1;" parent="1" vertex="1">
          <mxGeometry x="-330" y="400" width="80" height="50" as="geometry" />
        </mxCell>
        <mxCell id="iifiJUeVj2P6wkOjP6AG-59" value="" style="endArrow=none;html=1;rounded=0;exitX=1;exitY=1;exitDx=0;exitDy=0;entryX=0;entryY=0;entryDx=0;entryDy=0;" parent="1" source="iifiJUeVj2P6wkOjP6AG-58" target="iifiJUeVj2P6wkOjP6AG-2" edge="1">
          <mxGeometry width="50" height="50" relative="1" as="geometry">
            <mxPoint x="-30" y="460" as="sourcePoint" />
            <mxPoint x="20" y="410" as="targetPoint" />
          </mxGeometry>
        </mxCell>
        <mxCell id="iifiJUeVj2P6wkOjP6AG-60" value="" style="endArrow=none;html=1;rounded=0;entryX=0;entryY=0.5;entryDx=0;entryDy=0;exitX=1;exitY=0;exitDx=0;exitDy=0;" parent="1" source="iifiJUeVj2P6wkOjP6AG-57" target="iifiJUeVj2P6wkOjP6AG-2" edge="1">
          <mxGeometry width="50" height="50" relative="1" as="geometry">
            <mxPoint x="-30" y="460" as="sourcePoint" />
            <mxPoint x="20" y="410" as="targetPoint" />
          </mxGeometry>
        </mxCell>
        <mxCell id="iifiJUeVj2P6wkOjP6AG-61" value="" style="endArrow=none;html=1;rounded=0;exitX=0.5;exitY=0;exitDx=0;exitDy=0;entryX=0.5;entryY=1;entryDx=0;entryDy=0;" parent="1" source="iifiJUeVj2P6wkOjP6AG-56" target="iifiJUeVj2P6wkOjP6AG-2" edge="1">
          <mxGeometry width="50" height="50" relative="1" as="geometry">
            <mxPoint x="-30" y="460" as="sourcePoint" />
            <mxPoint x="20" y="410" as="targetPoint" />
          </mxGeometry>
        </mxCell>
        <mxCell id="iifiJUeVj2P6wkOjP6AG-62" value="prejme" style="rhombus;whiteSpace=wrap;html=1;" parent="1" vertex="1">
          <mxGeometry x="-100" y="370" width="80" height="50" as="geometry" />
        </mxCell>
        <mxCell id="iifiJUeVj2P6wkOjP6AG-63" value="pošlje" style="rhombus;whiteSpace=wrap;html=1;" parent="1" vertex="1">
          <mxGeometry x="-30" y="440" width="80" height="50" as="geometry" />
        </mxCell>
        <mxCell id="iifiJUeVj2P6wkOjP6AG-64" value="" style="endArrow=none;html=1;rounded=0;entryX=0;entryY=0.75;entryDx=0;entryDy=0;exitX=1;exitY=0;exitDx=0;exitDy=0;" parent="1" source="iifiJUeVj2P6wkOjP6AG-62" target="pRCXdVqekEFX91QpnFJt-1" edge="1">
          <mxGeometry width="50" height="50" relative="1" as="geometry">
            <mxPoint x="-30" y="460" as="sourcePoint" />
            <mxPoint x="20" y="410" as="targetPoint" />
          </mxGeometry>
        </mxCell>
        <mxCell id="iifiJUeVj2P6wkOjP6AG-65" value="" style="endArrow=none;html=1;rounded=0;entryX=0;entryY=1;entryDx=0;entryDy=0;exitX=1;exitY=0;exitDx=0;exitDy=0;" parent="1" source="iifiJUeVj2P6wkOjP6AG-63" target="pRCXdVqekEFX91QpnFJt-1" edge="1">
          <mxGeometry width="50" height="50" relative="1" as="geometry">
            <mxPoint x="-30" y="460" as="sourcePoint" />
            <mxPoint x="20" y="410" as="targetPoint" />
          </mxGeometry>
        </mxCell>
        <mxCell id="iifiJUeVj2P6wkOjP6AG-66" value="" style="shape=flexArrow;endArrow=classic;html=1;rounded=0;exitX=0.5;exitY=0;exitDx=0;exitDy=0;entryX=0;entryY=1;entryDx=0;entryDy=0;" parent="1" source="iifiJUeVj2P6wkOjP6AG-2" target="iifiJUeVj2P6wkOjP6AG-62" edge="1">
          <mxGeometry width="50" height="50" relative="1" as="geometry">
            <mxPoint x="-30" y="460" as="sourcePoint" />
            <mxPoint x="20" y="410" as="targetPoint" />
          </mxGeometry>
        </mxCell>
        <mxCell id="iifiJUeVj2P6wkOjP6AG-67" value="" style="shape=flexArrow;endArrow=classic;html=1;rounded=0;exitX=1;exitY=0.5;exitDx=0;exitDy=0;entryX=0;entryY=0.5;entryDx=0;entryDy=0;" parent="1" source="iifiJUeVj2P6wkOjP6AG-2" target="iifiJUeVj2P6wkOjP6AG-63" edge="1">
          <mxGeometry width="50" height="50" relative="1" as="geometry">
            <mxPoint x="-30" y="460" as="sourcePoint" />
            <mxPoint x="20" y="410" as="targetPoint" />
          </mxGeometry>
        </mxCell>
        <mxCell id="iifiJUeVj2P6wkOjP6AG-68" value="AKTIVNOST" style="rounded=0;whiteSpace=wrap;html=1;" parent="1" vertex="1">
          <mxGeometry x="-130" y="670" width="120" height="60" as="geometry" />
        </mxCell>
        <mxCell id="iifiJUeVj2P6wkOjP6AG-69" value="izvaja" style="rhombus;whiteSpace=wrap;html=1;" parent="1" vertex="1">
          <mxGeometry x="40" y="630" width="80" height="50" as="geometry" />
        </mxCell>
        <mxCell id="iifiJUeVj2P6wkOjP6AG-70" value="" style="shape=flexArrow;endArrow=classic;html=1;rounded=0;exitX=0;exitY=0.25;exitDx=0;exitDy=0;entryX=1;entryY=0.5;entryDx=0;entryDy=0;" parent="1" source="pRCXdVqekEFX91QpnFJt-2" target="iifiJUeVj2P6wkOjP6AG-69" edge="1">
          <mxGeometry width="50" height="50" relative="1" as="geometry">
            <mxPoint x="590" y="560" as="sourcePoint" />
            <mxPoint x="120" y="655" as="targetPoint" />
          </mxGeometry>
        </mxCell>
        <mxCell id="iifiJUeVj2P6wkOjP6AG-71" value="" style="endArrow=none;html=1;rounded=0;exitX=1;exitY=0.25;exitDx=0;exitDy=0;entryX=0;entryY=0.5;entryDx=0;entryDy=0;" parent="1" source="iifiJUeVj2P6wkOjP6AG-68" target="iifiJUeVj2P6wkOjP6AG-69" edge="1">
          <mxGeometry width="50" height="50" relative="1" as="geometry">
            <mxPoint x="590" y="560" as="sourcePoint" />
            <mxPoint x="530" y="670" as="targetPoint" />
          </mxGeometry>
        </mxCell>
        <mxCell id="iifiJUeVj2P6wkOjP6AG-73" value="opis" style="ellipse;whiteSpace=wrap;html=1;" parent="1" vertex="1">
          <mxGeometry x="-230" y="680" width="80" height="50" as="geometry" />
        </mxCell>
        <mxCell id="iifiJUeVj2P6wkOjP6AG-74" value="&lt;u&gt;ime aktivnosti&lt;/u&gt;" style="ellipse;whiteSpace=wrap;html=1;" parent="1" vertex="1">
          <mxGeometry x="-140" y="780" width="80" height="50" as="geometry" />
        </mxCell>
        <mxCell id="iifiJUeVj2P6wkOjP6AG-75" value="" style="endArrow=none;html=1;rounded=0;exitX=0.25;exitY=1;exitDx=0;exitDy=0;entryX=0.5;entryY=0;entryDx=0;entryDy=0;" parent="1" source="iifiJUeVj2P6wkOjP6AG-68" target="iifiJUeVj2P6wkOjP6AG-74" edge="1">
          <mxGeometry width="50" height="50" relative="1" as="geometry">
            <mxPoint x="590" y="560" as="sourcePoint" />
            <mxPoint x="640" y="510" as="targetPoint" />
          </mxGeometry>
        </mxCell>
        <mxCell id="iifiJUeVj2P6wkOjP6AG-78" value="" style="endArrow=none;html=1;rounded=0;exitX=0;exitY=0.5;exitDx=0;exitDy=0;entryX=1;entryY=0.5;entryDx=0;entryDy=0;" parent="1" source="iifiJUeVj2P6wkOjP6AG-68" target="iifiJUeVj2P6wkOjP6AG-73" edge="1">
          <mxGeometry width="50" height="50" relative="1" as="geometry">
            <mxPoint x="590" y="560" as="sourcePoint" />
            <mxPoint x="640" y="510" as="targetPoint" />
          </mxGeometry>
        </mxCell>
        <mxCell id="iifiJUeVj2P6wkOjP6AG-82" style="edgeStyle=orthogonalEdgeStyle;rounded=0;orthogonalLoop=1;jettySize=auto;html=1;exitX=0.5;exitY=1;exitDx=0;exitDy=0;" parent="1" source="iifiJUeVj2P6wkOjP6AG-73" target="iifiJUeVj2P6wkOjP6AG-73" edge="1">
          <mxGeometry relative="1" as="geometry" />
        </mxCell>
        <mxCell id="iifiJUeVj2P6wkOjP6AG-83" value="se ukvarja" style="rhombus;whiteSpace=wrap;html=1;" parent="1" vertex="1">
          <mxGeometry x="-10" y="530" width="80" height="50" as="geometry" />
        </mxCell>
        <mxCell id="iifiJUeVj2P6wkOjP6AG-84" value="" style="endArrow=none;html=1;rounded=0;entryX=0.25;entryY=1;entryDx=0;entryDy=0;exitX=0.5;exitY=0;exitDx=0;exitDy=0;" parent="1" source="iifiJUeVj2P6wkOjP6AG-83" target="pRCXdVqekEFX91QpnFJt-1" edge="1">
          <mxGeometry width="50" height="50" relative="1" as="geometry">
            <mxPoint x="70" y="500" as="sourcePoint" />
            <mxPoint x="120" y="450" as="targetPoint" />
          </mxGeometry>
        </mxCell>
        <mxCell id="iifiJUeVj2P6wkOjP6AG-85" value="" style="endArrow=none;html=1;rounded=0;exitX=0;exitY=1;exitDx=0;exitDy=0;entryX=0.75;entryY=0;entryDx=0;entryDy=0;" parent="1" source="iifiJUeVj2P6wkOjP6AG-83" target="iifiJUeVj2P6wkOjP6AG-68" edge="1">
          <mxGeometry width="50" height="50" relative="1" as="geometry">
            <mxPoint x="70" y="500" as="sourcePoint" />
            <mxPoint x="120" y="450" as="targetPoint" />
          </mxGeometry>
        </mxCell>
      </root>
    </mxGraphModel>
  </diagram>
</mxfile>
